<svg width="261" height="29" viewBox="0 0 261 29" fill="none" xmlns="http://www.w3.org/2000/svg">
<path d="M0.64 28H13.72C24.16 28 31.16 21.48 31.16 11.56C31.16 4.52 26.08 -1.90735e-06 17.56 -1.90735e-06H6.24L0.64 28ZM6.72 23.6L10.56 4.4H17C22.92 4.4 25.92 7.28 25.92 11.88C25.92 18.6 21.4 23.6 13.88 23.6H6.72ZM46.4869 28.4C54.0069 28.4 58.6869 24.28 60.3269 16.04L63.5269 -1.90735e-06H58.4069L55.2869 15.68C54.1269 21.4 51.4469 23.84 47.0069 23.84C43.0469 23.84 40.8069 22 40.8069 18.2C40.8069 17.48 40.9269 16.64 41.0869 15.72L44.2469 -1.90735e-06H39.0469L35.8869 15.8C35.6869 16.84 35.5669 17.84 35.5669 18.8C35.5669 24.72 39.6069 28.4 46.4869 28.4ZM90.4094 4.36L91.2894 -1.90735e-06H70.8494L65.2494 28H70.4494L72.6094 17.28H86.1294L87.0094 12.88H73.4494L75.1694 4.36H90.4094ZM115.878 4.36L116.758 -1.90735e-06H96.3181L90.7181 28H95.9181L98.0781 17.28H111.598L112.478 12.88H98.9181L100.638 4.36H115.878ZM116.187 28H136.027L136.907 23.6H122.267L126.987 -1.90735e-06H121.787L116.187 28ZM165.292 4.36L166.172 -1.90735e-06H145.732L140.132 28H161.132L162.012 23.64H146.172L147.692 15.92H161.292L162.132 11.64H148.572L150.012 4.36H165.292ZM168.88 28.28C170.68 28.28 172.32 26.88 172.32 24.76C172.32 22.92 171 21.64 169.24 21.64C167.32 21.64 165.76 23.08 165.76 25.16C165.76 26.96 167.12 28.28 168.88 28.28ZM199.725 13.52C202.605 12.36 204.725 9.88 204.725 6.28C204.725 2.2 201.405 -1.90735e-06 195.605 -1.90735e-06H182.685L177.085 28H191.125C198.445 28 203.525 25.12 203.525 19.2C203.525 16.32 202.085 14.4 199.725 13.52ZM194.445 4.08C197.525 4.08 199.285 5.04 199.285 7.16C199.285 10.24 196.765 11.8 192.885 11.8H185.485L187.045 4.08H194.445ZM191.485 23.92H183.085L184.685 15.84H193.285C196.485 15.84 198.325 16.72 198.325 19.2C198.325 22.32 195.805 23.92 191.485 23.92ZM232.675 4.36L233.555 -1.90735e-06H213.115L207.515 28H228.515L229.395 23.64H213.555L215.075 15.92H228.675L229.515 11.64H215.955L217.395 4.36H232.675ZM239.992 28H245.192L249.872 4.4H259.152L260.072 -1.90735e-06H236.312L235.432 4.4H244.712L239.992 28Z" fill="#FFC528"/>
</svg>
