<svg width="1869" height="1008" viewBox="0 0 1869 1008" fill="none" xmlns="http://www.w3.org/2000/svg">
<path opacity="0.25" fill-rule="evenodd" clip-rule="evenodd" d="M360.914 657.315C335.052 672.431 312.173 691.757 294.424 715.888C198.909 845.745 -93.5064 1292.87 287.933 1440.31C551.567 1542.22 1400.83 1662.57 1790.14 1385.56C1883.67 1319.01 1804.55 859.522 1751.02 599.556C1729.01 492.674 1638.3 415.138 1529.55 406.118L962.14 359.05C910.327 354.752 858.447 366.521 813.561 392.756L360.914 657.315Z" fill="url(#paint0_linear_1_676)"/>
<mask id="mask0_1_676" style="mask-type:alpha" maskUnits="userSpaceOnUse" x="97" y="358" width="1737" height="1199">
<path fill-rule="evenodd" clip-rule="evenodd" d="M360.914 657.315C335.052 672.431 312.173 691.757 294.424 715.888C198.909 845.745 -93.5064 1292.87 287.933 1440.31C551.567 1542.22 1400.83 1662.57 1790.14 1385.56C1883.67 1319.01 1804.55 859.522 1751.02 599.556C1729.01 492.674 1638.3 415.138 1529.55 406.118L962.14 359.05C910.327 354.752 858.447 366.521 813.561 392.756L360.914 657.315Z" fill="white"/>
</mask>
<g mask="url(#mask0_1_676)">
</g>
<mask id="mask1_1_676" style="mask-type:alpha" maskUnits="userSpaceOnUse" x="97" y="358" width="1747" height="1209">
<path fill-rule="evenodd" clip-rule="evenodd" d="M360.914 657.315C335.051 672.431 312.173 691.757 294.423 715.888C198.909 845.745 -93.5066 1292.87 287.933 1440.31C551.567 1542.22 1400.83 1662.57 1790.14 1385.56C1883.67 1319.01 1804.55 859.522 1751.02 599.555C1729.01 492.674 1638.3 415.138 1529.55 406.117L962.14 359.05C910.327 354.752 858.447 366.521 813.561 392.756L360.914 657.315Z" fill="white"/>
<path fill-rule="evenodd" clip-rule="evenodd" d="M370.914 667.315C345.051 682.431 322.173 701.757 304.423 725.888C208.909 855.745 -83.5066 1302.87 297.933 1450.31C561.567 1552.22 1410.83 1672.57 1800.14 1395.56C1893.67 1329.01 1814.55 869.522 1761.02 609.555C1739.01 502.674 1648.3 425.138 1539.55 416.117L972.14 369.05C920.327 364.752 868.447 376.521 823.561 402.756L370.914 667.315Z" fill="white"/>
<path fill-rule="evenodd" clip-rule="evenodd" d="M360.914 657.315C335.051 672.431 312.173 691.757 294.423 715.888C198.909 845.745 -93.5066 1292.87 287.933 1440.31C551.567 1542.22 1400.83 1662.57 1790.14 1385.56C1883.67 1319.01 1804.55 859.522 1751.02 599.555C1729.01 492.674 1638.3 415.138 1529.55 406.117L962.14 359.05C910.327 354.752 858.447 366.521 813.561 392.756L360.914 657.315Z" stroke="white"/>
<path fill-rule="evenodd" clip-rule="evenodd" d="M370.914 667.315C345.051 682.431 322.173 701.757 304.423 725.888C208.909 855.745 -83.5066 1302.87 297.933 1450.31C561.567 1552.22 1410.83 1672.57 1800.14 1395.56C1893.67 1329.01 1814.55 869.522 1761.02 609.555C1739.01 502.674 1648.3 425.138 1539.55 416.117L972.14 369.05C920.327 364.752 868.447 376.521 823.561 402.756L370.914 667.315Z" stroke="white"/>
</mask>
<g mask="url(#mask1_1_676)">
</g>
<defs>
<linearGradient id="paint0_linear_1_676" x1="-247.221" y1="1047.08" x2="230.807" y2="-406.402" gradientUnits="userSpaceOnUse">
<stop stop-color="#DAB23B"/>
<stop offset="1" stop-color="#E4B920"/>
</linearGradient>
</defs>
</svg>
