<svg width="25" height="25" viewBox="0 0 25 25" fill="none" xmlns="http://www.w3.org/2000/svg">
<g clip-path="url(#clip0_1_875)">
<path d="M12.1177 0.000677538C9.03823 0.11904 6.10756 1.36641 3.87627 3.50848C1.64498 5.65054 0.266611 8.53989 9.24193e-05 11.6338C-0.211844 14.424 0.504271 17.2059 2.03543 19.5404C3.56659 21.875 5.8256 23.6293 8.45597 24.5265C8.59043 24.5723 8.73518 24.5779 8.87274 24.5427C9.01029 24.5074 9.13479 24.4328 9.23119 24.3278C9.32759 24.2228 9.39178 24.092 9.41601 23.951C9.44024 23.8101 9.42348 23.6651 9.36774 23.5336L8.5295 21.5478C8.45753 21.3958 8.33895 21.2711 8.19127 21.1921C6.6938 20.4391 5.41991 19.3014 4.49815 17.8938C3.57639 16.4862 3.03936 14.8585 2.94127 13.175C2.88416 11.8818 3.08233 10.5902 3.52429 9.37479C3.96626 8.15943 4.64322 7.04455 5.51595 6.0948C6.38867 5.14505 7.4398 4.37931 8.60839 3.84197C9.77698 3.30463 11.0398 3.00639 12.3236 2.96452C14.4889 2.9276 16.6022 3.63381 18.3166 4.96716C20.0309 6.30052 21.2443 8.18174 21.7574 10.3018C22.2706 12.4219 22.0529 14.6549 21.1403 16.6339C20.2277 18.6129 18.6744 20.2203 16.7354 21.1921C16.5877 21.2711 16.4691 21.3958 16.3972 21.5478L15.5589 23.5336C15.5032 23.6651 15.4864 23.8101 15.5106 23.951C15.5349 24.092 15.5991 24.2228 15.6955 24.3278C15.7919 24.4328 15.9164 24.5074 16.0539 24.5427C16.1915 24.5779 16.3362 24.5723 16.4707 24.5265C19.3078 23.5612 21.7069 21.6017 23.2313 19.0044C24.7557 16.4071 25.3042 13.3447 24.777 10.3742C24.2498 7.40381 22.682 4.7228 20.3587 2.81898C18.0354 0.915174 15.111 -0.0849144 12.1177 0.000677538V0.000677538Z" fill="white"/>
<path d="M15.6912 16.1234L12.75 18.1092C12.6818 18.1597 12.5993 18.187 12.5147 18.187C12.43 18.187 12.3476 18.1597 12.2794 18.1092L9.33821 16.1234C9.25884 16.0709 9.16477 16.0455 9.06997 16.0512C8.97517 16.0568 8.8847 16.0931 8.81202 16.1547C8.73934 16.2163 8.68832 16.2999 8.66654 16.393C8.64476 16.4862 8.6534 16.5839 8.69115 16.6717L12.1323 24.7334C12.1636 24.8138 12.2182 24.8829 12.2891 24.9316C12.3599 24.9802 12.4436 25.0063 12.5294 25.0063C12.6151 25.0063 12.6989 24.9802 12.7697 24.9316C12.8405 24.8829 12.8952 24.8138 12.9264 24.7334L16.3676 16.6717C16.417 16.5802 16.4328 16.4742 16.4125 16.3721C16.3922 16.27 16.337 16.1783 16.2565 16.113C16.176 16.0478 16.0753 16.0131 15.972 16.015C15.8686 16.0169 15.7693 16.0552 15.6912 16.1234Z" fill="white"/>
</g>
<defs>
<clipPath id="clip0_1_875">
<rect width="25" height="25" fill="white"/>
</clipPath>
</defs>
</svg>
