<svg width="107" height="64" viewBox="0 0 107 64" fill="none" xmlns="http://www.w3.org/2000/svg">
<path d="M78.2709 4.675L86.0709 12.595L59.6375 39.435L41.8167 21.34C39.7041 19.195 36.2916 19.195 34.1791 21.34L1.6791 54.395C-0.433398 56.54 -0.433398 60.005 1.6791 62.15C3.7916 64.295 7.2041 64.295 9.3166 62.15L37.9708 33L55.7917 51.095C57.9042 53.24 61.3167 53.24 63.4292 51.095L93.7084 20.405L101.508 28.325C103.188 30.03 106.113 28.82 106.113 26.4V2.75C106.167 1.21 104.975 0 103.458 0H80.2209C77.7834 0 76.5917 2.97 78.2709 4.675Z" fill="white"/>
</svg>
