<svg width="28" height="29" viewBox="0 0 28 29" fill="none" xmlns="http://www.w3.org/2000/svg">
<path d="M12.744 1.64983L1.59292 13.1992C0.716749 14.1067 0.716749 15.5916 1.59292 16.4991L12.744 28.0485C13.6202 28.9559 15.0539 28.9559 15.9302 28.0485L27.0813 16.4991C27.9574 15.5916 27.9574 14.1067 27.0813 13.1992L15.9302 1.64983C15.0539 0.742374 13.6202 0.742375 12.744 1.64983ZM15.5319 23.5112C14.8708 24.1959 13.8034 24.1959 13.1423 23.5112C12.4812 22.8265 12.4812 21.721 13.1423 21.0363C13.8034 20.3516 14.8708 20.3516 15.5319 21.0363C16.193 21.721 16.193 22.8265 15.5319 23.5112ZM8.36326 16.0866C7.70215 16.7713 6.63483 16.7713 5.97372 16.0866C5.31262 15.4019 5.31262 14.2964 5.97372 13.6117C6.63483 12.927 7.70215 12.927 8.36326 13.6117C9.02436 14.2964 9.02436 15.4019 8.36326 16.0866ZM15.5319 16.0866C14.8708 16.7713 13.8034 16.7713 13.1423 16.0866C12.4812 15.4019 12.4812 14.2964 13.1423 13.6117C13.8034 12.927 14.8708 12.927 15.5319 13.6117C16.193 14.2964 16.193 15.4019 15.5319 16.0866ZM22.7005 16.0866C22.0394 16.7713 20.972 16.7713 20.3109 16.0866C19.6498 15.4019 19.6498 14.2964 20.3109 13.6117C20.972 12.927 22.0394 12.927 22.7005 13.6117C23.3615 14.2964 23.3615 15.4019 22.7005 16.0866ZM15.5319 8.66197C14.8708 9.34668 13.8034 9.34668 13.1423 8.66197C12.4812 7.97725 12.4812 6.87181 13.1423 6.1871C13.8034 5.50238 14.8708 5.50238 15.5319 6.1871C16.193 6.87181 16.193 7.97725 15.5319 8.66197Z" fill="white"/>
</svg>
