<svg width="30" height="30" viewBox="0 0 30 30" fill="none" xmlns="http://www.w3.org/2000/svg">
<path d="M15.8789 7.17687C16.3202 7.22592 16.7525 7.31258 17.182 7.43568L17.8729 5.76775C17.2343 5.56865 16.5663 5.43881 15.8789 5.37646V7.17687Z" fill="white"/>
<path d="M12.818 7.43563C13.2475 7.31258 13.6799 7.22586 14.1211 7.17682V5.37646C13.4337 5.43881 12.7658 5.56859 12.1272 5.76775L12.818 7.43563Z" fill="white"/>
<path d="M7.17687 14.1211C7.22592 13.6799 7.31258 13.2475 7.43568 12.818L5.76775 12.1272C5.56865 12.7658 5.43881 13.4338 5.37646 14.1211H7.17687Z" fill="white"/>
<path d="M18.8069 8.10682C19.192 8.31904 19.5571 8.56678 19.9094 8.84785L21.1822 7.57508C20.663 7.14207 20.0968 6.76514 19.4942 6.44727L18.8069 8.10682Z" fill="white"/>
<path d="M10.0906 8.84785C10.443 8.56678 10.8081 8.31904 11.1931 8.10682L10.5058 6.44727C9.9032 6.76514 9.33701 7.14207 8.81787 7.57508L10.0906 8.84785Z" fill="white"/>
<path d="M21.1488 15C21.1488 11.5807 18.3898 8.85107 15 8.85107C11.5879 8.85107 8.85107 11.6016 8.85107 15C8.85107 16.6072 9.46672 18.1682 10.6492 19.3507C12.9683 21.6699 17.0316 21.6699 19.3507 19.3507C20.4939 18.2075 21.1488 16.6624 21.1488 15ZM17.6367 15C17.6367 15.4058 17.5369 15.7858 17.3724 16.1296L18.107 16.8642C18.4503 17.2075 18.4503 17.7637 18.107 18.107C17.7637 18.4503 17.2075 18.4504 16.8642 18.107L16.1296 17.3724C15.7858 17.5369 15.4058 17.6367 15 17.6367C14.5941 17.6367 14.2141 17.5369 13.8703 17.3724L13.1357 18.107C12.7924 18.4503 12.2363 18.4504 11.8929 18.107C11.5496 17.7637 11.5496 17.2075 11.8929 16.8642L12.6275 16.1296C12.463 15.7858 12.3632 15.4058 12.3632 15C12.3632 14.5941 12.463 14.2141 12.6275 13.8703L11.8929 13.1357C11.5496 12.7924 11.5496 12.2362 11.8929 11.8929C12.2362 11.5496 12.7924 11.5496 13.1357 11.8929L13.8703 12.6275C14.2141 12.463 14.5941 12.3632 15 12.3632C15.4058 12.3632 15.7858 12.463 16.1296 12.6275L16.8642 11.8929C17.2075 11.5496 17.7637 11.5496 18.107 11.8929C18.4503 12.2362 18.4503 12.7924 18.107 13.1357L17.3724 13.8703C17.5369 14.2141 17.6367 14.5941 17.6367 15Z" fill="white"/>
<path d="M7.17687 15.8789H5.37646C5.43881 16.5663 5.56859 17.2343 5.76775 17.8729L7.43568 17.182C7.31258 16.7525 7.22592 16.3202 7.17687 15.8789Z" fill="white"/>
<path d="M8.1067 18.8069L6.44727 19.4942C6.76514 20.0968 7.14207 20.6629 7.57508 21.1822L8.84773 19.9095C8.5666 19.5572 8.31893 19.192 8.1067 18.8069Z" fill="white"/>
<path d="M21.8934 11.1931L23.5527 10.5057C23.2348 9.9032 22.858 9.33701 22.425 8.81787L21.1523 10.0905C21.4335 10.4429 21.6812 10.8081 21.8934 11.1931Z" fill="white"/>
<path d="M3.57422 15C3.57422 13.762 3.77836 12.5721 4.14434 11.4547L0.897129 10.1099C0.363281 11.6446 0 13.2857 0 15C0 16.7144 0.363164 18.3555 0.89707 19.8902L4.14439 18.5453C3.77836 17.4279 3.57422 16.2381 3.57422 15Z" fill="white"/>
<path d="M22.823 14.121H24.6234C24.5611 13.4336 24.4313 12.7655 24.2321 12.127L22.5642 12.8178C22.6873 13.2473 22.774 13.6797 22.823 14.121Z" fill="white"/>
<path d="M15 15.8789C15.4854 15.8789 15.8789 15.4854 15.8789 15C15.8789 14.5146 15.4854 14.1211 15 14.1211C14.5146 14.1211 14.1211 14.5146 14.1211 15C14.1211 15.4854 14.5146 15.8789 15 15.8789Z" fill="white"/>
<path d="M8.1067 11.1931C8.31893 10.8081 8.56666 10.4429 8.84773 10.0905L7.57508 8.81787C7.14207 9.33701 6.76514 9.9032 6.44727 10.5058L8.1067 11.1931Z" fill="white"/>
<path d="M4.82273 9.83315C5.95652 7.6094 7.68053 5.92032 9.83297 4.82292L8.48701 1.57349C5.47852 3.03892 3.03867 5.47876 1.57324 8.48737L4.82273 9.83315Z" fill="white"/>
<path d="M9.83285 25.1772C7.62293 24.0505 5.92272 22.3244 4.82268 20.167L1.57324 21.5128C3.03867 24.5214 5.47852 26.9612 8.48701 28.4266L9.83285 25.1772Z" fill="white"/>
<path d="M11.4546 4.14434C12.572 3.77836 13.7618 3.57422 14.9999 3.57422C16.238 3.57422 17.4279 3.77836 18.5452 4.14434L19.8901 0.897129C18.3553 0.363281 16.7142 0 14.9999 0C13.2856 0 11.6445 0.363281 10.1096 0.897188L11.4546 4.14434Z" fill="white"/>
<path d="M20.167 4.8228C22.3107 5.91575 24.0402 7.60278 25.1772 9.83298L28.4265 8.48702C26.961 5.47864 24.5213 3.03892 21.5128 1.57349L20.167 4.8228Z" fill="white"/>
<path d="M18.5451 25.8557C17.4277 26.2217 16.238 26.4258 14.9999 26.4258C13.7618 26.4258 12.572 26.2217 11.4546 25.8557L10.1096 29.1029C11.6445 29.6368 13.2855 30 14.9999 30C16.7142 30 18.3552 29.6369 19.89 29.103L18.5451 25.8557Z" fill="white"/>
<path d="M25.1773 20.167C24.0429 22.392 22.3177 24.0808 20.167 25.1773L21.5127 28.4267C24.5214 26.9612 26.9612 24.5214 28.4267 21.5128L25.1773 20.167Z" fill="white"/>
<path d="M21.8934 18.8069C21.6812 19.192 21.4334 19.5572 21.1523 19.9095L22.425 21.1822C22.858 20.663 23.2349 20.0968 23.5528 19.4942L21.8934 18.8069Z" fill="white"/>
<path d="M19.9093 21.1521C19.5568 21.4331 19.1917 21.681 18.8066 21.8931L19.4941 23.5527C20.0967 23.2348 20.6628 22.8579 21.182 22.4249L19.9093 21.1521Z" fill="white"/>
<path d="M30 14.9999C30 13.2854 29.6368 11.6442 29.1028 10.1094L25.8557 11.4545C26.2217 12.5718 26.4258 13.7618 26.4258 14.9999C26.4258 16.238 26.2217 17.4279 25.8557 18.5452L29.1029 19.8901C29.6368 18.3553 30 16.7142 30 14.9999Z" fill="white"/>
<path d="M14.121 22.8228C13.6797 22.7736 13.2475 22.687 12.818 22.564L12.127 24.2322C12.7655 24.4313 13.4336 24.5611 14.121 24.6235V22.8228Z" fill="white"/>
<path d="M17.1819 22.564C16.7524 22.6869 16.3202 22.7736 15.8789 22.8228V24.6235C16.5663 24.5611 17.2343 24.4313 17.8729 24.2322L17.1819 22.564Z" fill="white"/>
<path d="M22.823 15.8789C22.774 16.3202 22.6873 16.7525 22.5642 17.182L24.2321 17.8729C24.4312 17.2343 24.5611 16.5663 24.6234 15.8789H22.823Z" fill="white"/>
<path d="M11.1933 21.8931C10.8082 21.681 10.4431 21.4331 10.0906 21.1521L8.81787 22.4249C9.33701 22.8579 9.90332 23.2348 10.5058 23.5527L11.1933 21.8931Z" fill="white"/>
</svg>
