<svg width="27" height="26" viewBox="0 0 27 26" fill="none" xmlns="http://www.w3.org/2000/svg">
<path d="M23.6149 0H19.7152C19.4521 0 19.2388 0.205426 19.2388 0.458796V2.75278H16.0585V0.458796C16.0585 0.205426 15.8451 0 15.5821 0H11.4155C11.1525 0 10.9391 0.205426 10.9391 0.458796V2.75278H7.76125V0.458796C7.76125 0.205426 7.54793 0 7.28482 0H3.38513C3.12201 0 2.90869 0.205426 2.90869 0.458796V5.38398C2.91131 6.62577 3.95609 7.63185 5.24564 7.63438H5.25517H21.7544C23.0439 7.63185 24.0887 6.62577 24.0914 5.38398V0.458796C24.0914 0.205426 23.878 0 23.6149 0Z" fill="white"/>
<path d="M21.3661 8.32031H5.64347L4.9693 23.05V23.1922C4.96471 23.8924 5.21032 24.5728 5.66491 25.1191C6.08221 25.6359 6.70891 25.9565 7.38725 26.0001H19.6247C20.303 25.9565 20.9297 25.6359 21.347 25.1191C21.8016 24.5728 22.0472 23.8924 22.0427 23.1922C22.0427 23.1647 22.0427 23.1165 22.0427 23.05L21.3661 8.32031ZM17.1185 25.1054H9.88619V18.6456C9.88619 16.7204 11.5068 15.1599 13.5059 15.1599C15.5051 15.1599 17.1257 16.7204 17.1257 18.6456L17.1185 25.1054Z" fill="white"/>
</svg>
