<svg width="20" height="20" viewBox="0 0 20 20" fill="none" xmlns="http://www.w3.org/2000/svg">
<path d="M9.99996 9.16667C10.6592 9.16667 11.3037 8.97117 11.8519 8.6049C12.4 8.23863 12.8273 7.71803 13.0796 7.10895C13.3319 6.49986 13.3979 5.82964 13.2692 5.18303C13.1406 4.53643 12.8232 3.94249 12.357 3.47631C11.8908 3.01014 11.2969 2.69267 10.6503 2.56405C10.0037 2.43543 9.33343 2.50144 8.72435 2.75374C8.11526 3.00603 7.59467 3.43327 7.22839 3.98143C6.86212 4.5296 6.66663 5.17406 6.66663 5.83333C6.66663 6.71739 7.01782 7.56524 7.64294 8.19036C8.26806 8.81548 9.1159 9.16667 9.99996 9.16667Z" fill="#CCAE7A"/>
<path d="M15 17.5C15.221 17.5 15.4329 17.4122 15.5892 17.2559C15.7455 17.0996 15.8333 16.8877 15.8333 16.6666C15.8333 15.1195 15.2187 13.6358 14.1248 12.5419C13.0308 11.4479 11.5471 10.8333 9.99996 10.8333C8.45286 10.8333 6.96913 11.4479 5.87517 12.5419C4.78121 13.6358 4.16663 15.1195 4.16663 16.6666C4.16663 16.8877 4.25442 17.0996 4.4107 17.2559C4.56698 17.4122 4.77895 17.5 4.99996 17.5H15Z" fill="#CCAE7A"/>
</svg>
