<svg width="17" height="20" viewBox="0 0 17 20" fill="none" xmlns="http://www.w3.org/2000/svg">
<path d="M8.99984 9.16642C9.65911 9.16642 10.3036 8.97093 10.8517 8.60466C11.3999 8.23838 11.8271 7.71779 12.0794 7.1087C12.3317 6.49962 12.3977 5.82939 12.2691 5.18279C12.1405 4.53619 11.823 3.94224 11.3569 3.47607C10.8907 3.00989 10.2967 2.69242 9.65014 2.56381C9.00353 2.43519 8.33331 2.5012 7.72423 2.75349C7.11514 3.00578 6.59454 3.43303 6.22827 3.98119C5.862 4.52935 5.6665 5.17382 5.6665 5.83309C5.6665 6.71715 6.01769 7.56499 6.64281 8.19011C7.26794 8.81523 8.11578 9.16642 8.99984 9.16642Z" fill="#5CC059"/>
<path d="M14.0006 17.4998C14.2216 17.4998 14.4335 17.412 14.5898 17.2557C14.7461 17.0994 14.8339 16.8875 14.8339 16.6665C14.8339 15.1194 14.2193 13.6356 13.1254 12.5417C12.0314 11.4477 10.5477 10.8331 9.00057 10.8331C7.45347 10.8331 5.96974 11.4477 4.87578 12.5417C3.78182 13.6356 3.16724 15.1194 3.16724 16.6665C3.16724 16.8875 3.25503 17.0994 3.41131 17.2557C3.56759 17.412 3.77956 17.4998 4.00057 17.4998H14.0006Z" fill="#5CC059"/>
</svg>
