<svg width="5" height="17" viewBox="0 0 5 17" fill="none" xmlns="http://www.w3.org/2000/svg">
<path d="M2.46911 4.2742C3.43444 4.2742 4.22426 3.32481 4.22426 2.16444C4.22426 1.00408 3.43444 0.0546875 2.46911 0.0546875C1.50378 0.0546875 0.713959 1.00408 0.713959 2.16444C0.713959 3.32481 1.50378 4.2742 2.46911 4.2742ZM2.46911 6.38396C1.50378 6.38396 0.713959 7.33335 0.713959 8.49371C0.713959 9.65408 1.50378 10.6035 2.46911 10.6035C3.43444 10.6035 4.22426 9.65408 4.22426 8.49371C4.22426 7.33335 3.43444 6.38396 2.46911 6.38396ZM2.46911 12.7132C1.50378 12.7132 0.713959 13.6626 0.713959 14.823C0.713959 15.9833 1.50378 16.9327 2.46911 16.9327C3.43444 16.9327 4.22426 15.9833 4.22426 14.823C4.22426 13.6626 3.43444 12.7132 2.46911 12.7132Z" fill="white" fill-opacity="0.5"/>
</svg>
